<?xml version="1.0" encoding="utf-8"?>
<!-- Generator: Adobe Illustrator 24.0.1, SVG Export Plug-In . SVG Version: 6.00 Build 0)  -->
<svg version="1.1" id="Layer_1" xmlns="http://www.w3.org/2000/svg" xmlns:xlink="http://www.w3.org/1999/xlink" x="0px" y="0px"
	 viewBox="0 0 559.9 336.3" style="enable-background:new 0 0 559.9 336.3;" xml:space="preserve">
<style type="text/css">
	.st0{clip-path:url(#SVGID_2_);}
	.st1{fill:#50B651;}
	.st2{opacity:0.663;fill-rule:evenodd;clip-rule:evenodd;fill:url(#SVGID_3_);enable-background:new    ;}
	.st3{opacity:0.586;fill-rule:evenodd;clip-rule:evenodd;fill:url(#SVGID_4_);enable-background:new    ;}
	.st4{opacity:0.744;fill-rule:evenodd;clip-rule:evenodd;fill:url(#SVGID_5_);enable-background:new    ;}
	.st5{fill-rule:evenodd;clip-rule:evenodd;fill:#FFFFFF;}
	.st6{fill-rule:evenodd;clip-rule:evenodd;fill:url(#SVGID_6_);}
	.st7{fill-rule:evenodd;clip-rule:evenodd;fill:#6EA037;}
	.st8{fill-rule:evenodd;clip-rule:evenodd;fill:#B9D234;}
	.st9{fill-rule:evenodd;clip-rule:evenodd;fill:#99BB90;}
	.st10{fill-rule:evenodd;clip-rule:evenodd;fill:#939297;}
	.st11{fill-rule:evenodd;clip-rule:evenodd;fill:#929096;}
	.st12{fill:#FFC403;}
	.st13{fill:#E20010;}
	.st14{fill:#D10010;}
</style>
<g>
	<defs>
		<circle id="SVGID_1_" cx="1200.6" cy="184.8" r="141.9"/>
	</defs>
	<clipPath id="SVGID_2_">
		<use xlink:href="#SVGID_1_"  style="overflow:visible;"/>
	</clipPath>
	<g class="st0">
		<circle class="st1" cx="1200.5" cy="185.3" r="144.1"/>
		
			<linearGradient id="SVGID_3_" gradientUnits="userSpaceOnUse" x1="1228.4011" y1="336.8409" x2="1246.9332" y2="169.481" gradientTransform="matrix(1 0 0 -1 -34.39 460.5586)">
			<stop  offset="0" style="stop-color:#123214"/>
			<stop  offset="0.46" style="stop-color:#3E7C37"/>
			<stop  offset="0.91" style="stop-color:#5FBB46"/>
		</linearGradient>
		<path class="st2" d="M1344.2,184.9c0,79.9-64.7,144.6-144.6,144.6c-79.8,0-144.6-64.7-144.6-144.6c0-35.3,1-40.6,14.9-60.7
			c0,0-0.7,22.7,15.9,36.2c10.4,8.4,21.2,2.3,40.9-6.8c21.4-9.9,38.8-16.2,52.4-14.6c20.4,2.5,83.5,40.4,116.4,32.8
			c26.3-6,23.5-68,23.5-68C1347.7,132,1344.2,150.9,1344.2,184.9z"/>
		
			<linearGradient id="SVGID_4_" gradientUnits="userSpaceOnUse" x1="5320.9033" y1="2782.8677" x2="5320.9033" y2="2783.2478" gradientTransform="matrix(115.64 0 0 355.9 -614016.5 -990309.6875)">
			<stop  offset="0" style="stop-color:#FFFFFF;stop-opacity:0"/>
			<stop  offset="0.64" style="stop-color:#FFFFFF;stop-opacity:0.43"/>
			<stop  offset="1" style="stop-color:#FFFFFF;stop-opacity:0.42"/>
		</linearGradient>
		<path class="st3" d="M1261.6,291.1c52.3-49.2,61-105.5,26.1-169c0.2,0.1,2.3-7.3,6.5-22.4c18.6,22.5,28.5,50.3,29.6,83.3
			C1323.8,225.8,1303.1,261.8,1261.6,291.1z"/>
		
			<radialGradient id="SVGID_5_" cx="2395.9065" cy="1001.8582" r="54.4076" fx="2395.9065" fy="977.5741" gradientTransform="matrix(1.17 0.59 0.28 -0.47 -1833.21 -854.3378)" gradientUnits="userSpaceOnUse">
			<stop  offset="0.13" style="stop-color:#FFFFFF"/>
			<stop  offset="0.29" style="stop-color:#FFFFFF;stop-opacity:0.69"/>
			<stop  offset="0.45" style="stop-color:#FFFFFF;stop-opacity:0.4"/>
			<stop  offset="0.59" style="stop-color:#FFFFFF;stop-opacity:0.18"/>
			<stop  offset="0.69" style="stop-color:#FFFFFF;stop-opacity:5.000000e-02"/>
			<stop  offset="0.74" style="stop-color:#FFFFFF;stop-opacity:0"/>
		</radialGradient>
		<path class="st4" d="M1236.8,100c-25.2-14-54.2-42.1-50.3-48s53.8-4.9,79.1,9.1c25.2,14,46.7,55.9,42.9,61.8
			C1304.6,128.8,1262.1,113.9,1236.8,100L1236.8,100z"/>
		<path class="st5" d="M1258.8,220.8c-20.9,0-37.9-17.5-37.9-39s17-39,37.9-39c20.9,0,37.9,17.5,37.9,39S1279.8,220.8,1258.8,220.8z
			 M1259.1,208.4c13.1,0,23.7-11.9,23.7-26.6s-10.6-26.6-23.7-26.6c-13.1,0-23.7,11.9-23.7,26.6S1246,208.4,1259.1,208.4z
			 M1207.9,220.3h-15v-97h-12.3v-11.9h27.3V220.3z M1160.2,143.9h14.2v91c0,8.3-8.7,16.9-17.2,20.6c-4,1.8-11.4,2.8-22.2,3.1v-9.1
			c10.6-1.2,17.7-3.5,21.4-7.1c2.1-3,3.5-6.4,3.9-10.1v-26.7c-3.8,8-8.6,13.4-14.3,16c-6,3.2-18.2,2.7-23.1,0
			c-5-2.7-12.3-9.8-15.6-20.4c-0.9-2.9-3.2-10.9-3-19.3c0.2-8,2.9-16.5,5.1-20c3.8-6,9.8-13.4,18.8-16.5c4.4-1.5,12.6-2.1,24.6-1.6
			v9c-8.9-0.6-14.4-0.3-16.6,0.9c-3.3,1.8-10.8,4-13.2,20.3c-2.5,16.3,0.1,29.6,7.9,33.7c2.7,1.4,7.4,3.1,11.8,1.6
			c8.4-2.9,16.3-13.1,16.9-20C1159.9,182.4,1160.2,167.2,1160.2,143.9L1160.2,143.9z"/>
		
			<radialGradient id="SVGID_6_" cx="1188.5958" cy="401.0613" r="159.6112" fx="1203.7487" fy="559.9507" gradientTransform="matrix(0.7678 0.6406 0.6983 -0.8369 32.2764 -273.7176)" gradientUnits="userSpaceOnUse">
			<stop  offset="0.86" style="stop-color:#000000;stop-opacity:0"/>
			<stop  offset="0.98" style="stop-color:#000000;stop-opacity:0.47"/>
			<stop  offset="1" style="stop-color:#000000"/>
		</radialGradient>
		<path class="st6" d="M1339.6,213.8c-13.4,64.5-70.5,112.9-139,112.9c-78.4,0-141.9-63.6-141.9-141.9c0-48.7,24.5-91.7,61.9-117.2
			c-30.4,25.2-49.7,63.2-49.7,105.8c0,75.9,61.5,137.4,137.4,137.4C1270.1,310.7,1322.3,269.9,1339.6,213.8L1339.6,213.8z"/>
		<path class="st5" d="M1200.6,16.7c-92.8,0-168.1,75.3-168.1,168.1s75.3,168.1,168.1,168.1s168.1-75.3,168.1-168.1
			S1293.5,16.7,1200.6,16.7z M1200.6,326.7c-78.4,0-141.9-63.6-141.9-141.9c0-48.7,24.5-91.7,61.9-117.2
			c23.6-16.1,51.5-24.8,80-24.7c78.4,0,141.9,63.5,141.9,141.9c0,9.7-1,19.5-3,29C1326.2,278.3,1269.1,326.7,1200.6,326.7
			L1200.6,326.7z"/>
	</g>
</g>
<g>
	<path class="st7" d="M514.6-646.1c14.6-1.2,33,5,44,10.7c10.4,5.4,16.7,9.2,25.2,16.2c12.1,10.1,26.2,28.1,13.4,45
		c-7,9.2-19.8,15.9-33.4,21.7c-7.9,3.4-21.8,8.3-30.6,10.8c-3.6,1-7.2,2.1-11,2.6c-10.3,1.5-13.6-2.8-16.9-10
		c-2.9-6.4-5-13.4-7.1-20.4c-3.9-12.9-8.9-31.8-8.7-46.5C489.8-633.7,497.4-644.7,514.6-646.1L514.6-646.1z M465.6-661.3l-0.2,0.8
		c-3.7,13.9-1.1,27.7,2.4,40.8c3.3,12.3,7.1,24,11.2,35.5c6,17,13,35.1,17.4,53c0.8,3.1,1.4,6.4,2.2,9.6c1,4.1,1.4,5.8,6,4.1
		c5.7-2.1,11-4.7,16.9-6.7c11.7-4.1,23.9-7.6,35.8-10.9c20.6-5.7,51.1-14,68.4-25.1c5-3.2,8.2-5.9,11.7-10.2l0.7-0.8l0.5-1
		c0.2-3.2,1-4.8,0.7-8.4c-1.2-14.2-14-28.6-24.3-37.6c-1.6-1.4-3.2-2.7-4.9-4.1c-14.9-12.9-43.2-28.7-61.6-36.1
		c-19.8-7.9-51.2-18.7-72.5-10.2C469-666,467.2-662.3,465.6-661.3L465.6-661.3z"/>
	<path class="st8" d="M498.2-588.4c-1.2-14.3,0.8-23.7,10-29.6c17.1-11,47.7,3.6,60.5,16.8l2.5,2.6c4.9,5.6,8.8,13.9,7.2,22.1
		c-0.5,2.8-1.5,4.9-2.8,7.1c-3.5,5.8-10.4,10.3-16.2,13.6c-8.2,4.8-17.5,9.5-28.2,11.8c-13.9,3-19.7,0.5-25.5-12
		C501.3-565.2,499.1-577.1,498.2-588.4L498.2-588.4z M514.6-646.1c-17.2,1.5-24.8,12.4-25.1,30.2c-0.2,14.8,4.7,33.6,8.7,46.5
		c2.1,7,4.2,14,7.1,20.4c3.3,7.2,6.6,11.5,16.9,10c3.8-0.6,7.4-1.6,11-2.6c8.9-2.5,22.7-7.4,30.6-10.8c13.5-5.8,26.3-12.5,33.4-21.7
		c12.8-16.9-1.3-35-13.4-45c-8.5-7.1-14.8-10.9-25.2-16.2C547.7-641.1,529.2-647.4,514.6-646.1L514.6-646.1z"/>
	<path class="st8" d="M638.2-571.4l-0.7,0.8c-3.6,4.3-6.8,7-11.7,10.2c-17.3,11.1-47.7,19.4-68.4,25.1c-12,3.3-24.2,6.8-35.8,10.9
		c-5.9,2.1-11.2,4.6-16.9,6.7c-4.6,1.7-5,0-6-4.1c-0.8-3.1-1.4-6.4-2.2-9.6c-4.4-17.9-11.4-36-17.4-53c-4.1-11.5-8-23.2-11.2-35.5
		c-3.5-13.1-6.1-26.9-2.4-40.8c-1.4,0.9-3.5,5.9-4.2,8.1c-1,3.4-1.5,7-1.7,10.8c-0.9,18.6,8.1,43.6,13.8,60.7
		c6.5,19.3,13.4,35.8,18.6,55.9c0.9,3.3,1.5,6.7,2.4,10.1c1.1,4.4,1.1,6.9,6.3,5c5.9-2.1,11.6-4.8,17.8-7c6.1-2.2,12.7-4.2,18.9-6.1
		c12.8-3.7,25.9-7.2,38.7-11.1C599.5-541.1,631.7-551.6,638.2-571.4L638.2-571.4z"/>
	<path class="st9" d="M465.6-661.3c1.6-1,3.3-4.6,10.3-7.4c21.3-8.5,52.7,2.3,72.5,10.2c18.4,7.3,46.7,23.2,61.6,36.1
		c1.7,1.5,3.3,2.7,4.9,4.1c10.3,9,23.1,23.4,24.3,37.6c0.3,3.6-0.4,5.3-0.7,8.4c0.1,0,0.1-0.2,0.1-0.1c0.1,0.1,4.8-5.8,4.6-14.6
		c-0.2-14.7-12.8-27.8-21.4-36.4c-4.9-4.9-16.3-13.4-21.4-17c-26.2-18.1-81.2-45-113.5-38.3c-5.2,1.1-10.1,3.1-13.4,5.8
		c-1.8,1.4-3.3,3-4.7,5C467.4-665.6,466.8-664,465.6-661.3L465.6-661.3z"/>
	<path class="st10" d="M335.1-508c0,9.6,1,17.9-6,21.9c-6.1,3.5-17.2,2.9-22.3-0.9c-2.3-1.7-4.1-6.3-2.9-10.5c1-3.3,3.8-5.6,7.1-6.8
		c3.1-1.2,8.3-1.6,11.9-2C327.1-506.7,330.9-507.3,335.1-508L335.1-508z M335.9-481.3c0.8,6.7,4.2,5.9,10.4,5.9
		c0.1-12.8,0.1-25.8,0.1-38.6c0-10.6-0.6-22.6-13.4-25.6c-5-1.1-21.4-0.6-28.3-0.6c-3.3,0-6,0.4-7.1,2.7c-1.2,2.6-0.2,5.8,1.7,6.9
		c2.1,1.2,6.1,0.8,8.8,0.8c6.2,0,13.3-0.3,19.4,0.1c10.8,0.7,7.5,9.9,6.8,10.7c-1.6,1.9-3.8,2.3-6.8,2.9
		c-13.2,2.7-29.9,0.7-34.2,14.4c-3.4,10.8,1.1,20.9,11.9,24.8c7.5,2.7,21.3,2.9,28.4-2.1C334-479.5,335.7-481.1,335.9-481.3
		L335.9-481.3z"/>
	<path class="st10" d="M107.4-511.2c0.1-7.7,3.8-14.6,11-17.6c16.8-7.1,29.4,6.5,26,11.8c-1.7,2.6-7.8,2.6-11.4,3
		C128.9-513.5,109.8-511.2,107.4-511.2L107.4-511.2z M156.6-475.6c0.1-8.6,0-10.4-8.7-10.4c-6.3,0-12.6,0-19,0
		c-11,0-20.2-4-21.5-16.1c10-1.2,20.4-2.1,30.5-3.1c5-0.5,10.2-0.6,13.9-3.1c3.7-2.5,5-6.6,3.5-12.3c-7.3-27.4-51.7-26.6-58.4,4.1
		c-2.9,13.3,1.1,29,12.8,36.3c3.6,2.3,7.8,3.8,12.8,4.3C127-475.3,150.5-475.6,156.6-475.6L156.6-475.6z"/>
	<path class="st11" d="M419.7-507.9c0,9.8,1.2,17.6-6.1,21.9c-5.4,3.2-18.1,2.9-22.3-1c-2.4-2.2-4-6.2-2.8-10.4
		c2.3-7.7,12.5-8.1,19-8.8L419.7-507.9L419.7-507.9z M420.5-481.3c0.9,6.5,4.1,5.8,10.4,5.8c-0.1-12.8,0.1-25.8,0.1-38.6
		c0-10.5-0.5-22.4-13.2-25.5c-4.9-1.2-21.4-0.7-28.3-0.7c-3.4,0-6,0.1-7.2,2.5c-1.4,2.6-0.4,5.7,1.5,7c2,1.3,6.1,0.9,8.8,0.9
		c6.3,0,13.2-0.3,19.4,0.1c2.9,0.2,5.6,0.8,6.8,2.7c1.2,1.9,1.5,6,0.4,7.9c-1.8,2.9-10.8,3.8-15.2,4.3c-12,1.4-22.4,2.5-25.8,12.8
		c-1.7,5.1-1.5,11.8,0.8,16.2c2.2,4.1,5.8,7,10.6,8.8c5.1,1.9,11.6,2.4,17.4,1.7C413.5-476.1,416.3-477.4,420.5-481.3L420.5-481.3z"
		/>
	<path class="st11" d="M230.4-475.5c8.4,0.1,16.9,0,25.3,0c9.4,0,23.3,0.9,28.4-9.4c1.6-3.3,2.2-6.4,2.2-10.5
		c0-15-9.8-15.9-20.1-17.7c-3.9-0.7-18.3-2.8-20.9-4.4c-2.7-1.7-3-6.1-1.4-9.4c1.7-3.4,5.1-3.1,9.4-3.1c4.1,0,22.1,0.5,24.6-0.6
		c3.2-1.3,3.9-6,1.4-8.3c-2.3-2.2-7.4-1.5-11-1.5c-5.1,0-20.7-0.4-24.7,0.6c-3.4,0.8-6.3,2.7-7.9,4.8c-5,6.5-7,21,3.3,26.5
		c7.4,3.9,23.7,4.2,31.3,6.6c3.7,1.2,4.9,3.2,4.7,7.8c-0.2,4.2-2,6.2-5.5,7.2c-7.7,2.3-32.1-0.3-36.4,1.4
		C229.7-484,230.4-479.8,230.4-475.5L230.4-475.5z"/>
	<path class="st10" d="M445.9-540.3c-4.6,0-9,0.2-9,5.1c0,5.3,4.4,5.3,9.1,5.3c0,6.9,0,13.9,0,20.8c0,6.7-0.3,14.4,0,20.9
		c0.4,6.9,3.2,10.4,9.4,11.7c3.4,0.7,16.6,1.4,20,0.7c0.4-7.4-0.6-9.6-8.2-9.6c-8.5,0-10-1-10-8.3c0-12.1,0-24.2,0-36.3
		c6.9,0,15.7,1.6,15.9-5.1c0.2-7.1-9-5.4-15.8-5.4l-0.1-17.1c-1.5-0.2-5.3-0.2-6.9,0C443.2-556.7,446.9-548.4,445.9-540.3
		L445.9-540.3z"/>
	<path class="st11" d="M170-540.4c-2.6,0.2-9-0.8-9,5.2c-0.1,6.1,6.3,5.1,9.1,5.4c0,6.9,0,13.8,0,20.8c0,6.9-0.3,14.3,0.1,21.1
		c0.3,6.7,3.3,10.2,9.2,11.6c5.9,1.3,13.8,0.8,20.1,0.9c0.8-7.6-0.9-9.7-8.3-9.7c-7.7,0-9.9-0.5-9.9-8.3c0-12.1,0-24.2,0-36.3
		c5.8-0.5,15.8,2.1,16-5.1c0.2-7.6-9.9-4.9-15.9-5.4l0-17.1c-4.4,0-9.9-0.9-11,3.3C169.5-551.4,170.3-543.9,170-540.4L170-540.4z"/>
	<path class="st10" d="M357.2-475.6l11.2,0.1l0-82.3c-2.9-0.3-8.6-0.5-10.1,1.3c-1.7,2-1,7.5-1,10.7v58.5
		C357.2-483.6,356.9-479.2,357.2-475.6L357.2-475.6z"/>
	<path class="st10" d="M209-475.5l11.2,0.1l0-64.7c-10.6-0.8-11.2,0.6-11.2,7.6C209-513.8,209.3-494.3,209-475.5L209-475.5z"/>
	<path class="st10" d="M209-545.2c3.1,0.3,8.7,0.4,10.3-1.4c1.2-1.4,1.3-8.6,0.9-10.9C207.6-558.3,209.1-556.2,209-545.2L209-545.2z
		"/>
</g>
<g>
	<rect x="735.2" y="41.3" class="st12" width="287.1" height="287.1"/>
	<path d="M862.8,167.9v32.8h-9v-18.4l-6,8.9h-4.7l-6.6-8.9v18.4h-8.2v-32.8h8.3l9.5,12.9l8.5-12.9H862.8z M865.4,175.3v-7.4H896v7.4
		h-10.7v25.4h-9.1v-25.4H865.4z M929.7,167.9v32.8h-7.5l-15.4-18.7v18.7h-8.2v-32.8h8.2l14.7,18.1v-18.1H929.7z M878.7,234.9
		c-26.5,0-51.4-5-70.3-13.9c-19.7-9.4-30.6-22.2-30.6-36.1s10.9-26.7,30.6-36.1c18.8-9,43.8-13.9,70.3-13.9s51.4,5,70.3,13.9
		c19.7,9.4,30.6,22.2,30.6,36.1S968.7,211.6,949,221C930.2,230,905.2,234.9,878.7,234.9z M878.7,142.1c-25.4,0-49.2,4.7-67.1,13.2
		c-17,8.1-26.4,18.6-26.4,29.5c0,10.9,9.4,21.4,26.4,29.5c17.9,8.5,41.7,13.2,67.1,13.2c25.4,0,49.2-4.7,67.1-13.2
		c17-8.1,26.4-18.6,26.4-29.5c0-10.9-9.4-21.4-26.4-29.5C928,146.8,904.1,142.2,878.7,142.1L878.7,142.1z"/>
</g>
<g id="layer1" transform="translate(-149.05188,-480.89344)">
	<g id="g3562" transform="matrix(0.60759494,0,0,0.60759494,92.545549,424.08331)">
		<g id="g3528" transform="translate(328.724,128.19)">
			<path id="path3530" class="st13" d="M207.8,303.6c-3,2.1-9.2,3.9-15.8,3.9c-12.3,0-17.8-9.4-17.6-20.4
				c0.2-9.1,5.9-19.4,21.2-19.4l12.2,0V303.6z M195.2,202.8c-14.6,0-27.7,4.1-41.1,10.8l-3.4,1.8l8.2,18.3l4.6-2.2
				c9.5-4.3,19.7-7.1,28.8-6.7c11.1,0.5,15.6,5.5,15.6,16.1v6.2h-18.1c-29.1,0-47.1,15.4-47.7,39.3c0,22.7,19,42.3,45.3,42.3
				c21.3,0,39.3-6.9,51.4-19.1v-64.9C238.8,213.2,216.2,202.8,195.2,202.8L195.2,202.8z M626.8,307.4v19.2c0,0-6.4,1.2-11.7,1.2
				c-24.4,0-38.9-11.5-38.9-38.3v-113l30.6-5.2v120.2c0,9.3,2.7,14.8,15.4,15.8C623.9,307.5,626.8,307.4,626.8,307.4z M492.6,250.4
				c0.5-11.8,5.4-23.9,17.5-23.9c13.6,0,15.6,14.7,15.6,23.9H492.6z M516.7,307.3c-8.4,0-14-2.7-17.7-6.7
				c-5.5-5.9-7.9-18.1-7.3-31.1h65.8v-3c-0.6-43.1-15.3-62.7-47.4-62.7c-35.9,0-49.8,33-50.1,64c-0.2,19.6,7.2,39.4,20.7,50.6
				c8.2,6.8,19.7,10.6,32.9,10.6c7.2,0,14.8-1.1,21.6-3.2c13.2-4.1,22.9-11.2,22.9-11.2l-8.6-17.7
				C548,298.1,534.8,307.3,516.7,307.3z M449.3,307.5v18.9c0,0-5.6,1.1-11.6,1.1c-24.9,0-39.8-12-39.8-37.5V176.5l31.3-5v33.6h20.1
				v22.4h-20.1v63.9c0,8.4,2.6,15.6,15.7,16.1C446.6,307.5,448.9,307.5,449.3,307.5L449.3,307.5z M261.6,210l30.5-5v121.5h-30.5V210
				z M277.2,156.4c5.3,0,10.2,2.1,13.8,5.8c3.6,3.7,5.4,8.6,5.3,13.7c0,10.8-8.5,19.3-19.4,19.3c-10.9,0-19.4-8.5-19.4-19.4
				C257.6,165.1,266.4,156.4,277.2,156.4z M389.6,206.8l-8.6,19.3c0,0-4.9-1.6-12.5-1.3c-8.2,0.3-16.8,3.8-20.9,7.8v94h-31.1l0-99.8
				c18.5-19.7,39.1-23.6,52.5-23.6C378.3,203.1,386.3,205.2,389.6,206.8z"/>
		</g>
		<g id="g3532" transform="translate(93,93.5)">
			<path id="path3534" class="st13" d="M236,144.3v0.3h-2.7v0.3h-3v0.3h-2.7v0.3h-2.4v0.3h-1.7v0.3h-1.7v0.3h-1.7v0.3h-1.7v0.3h-1.7
				v0.3h-1.7v0.3h-1v0.3h-1.4v0.3h-1.4v0.3H210v0.3h-1v0.3h-1.4v0.3h-1.4v0.3h-1.4v0.3h-1v0.3h-1v0.3h-1v0.3h-1v0.3h-1v0.3h-1v0.3
				h-1v0.3h-1v0.3h-1v0.3h-1v0.3h-1v0.3h-1v0.3h-1v0.3h-1v0.3h-0.7v0.3h-1v0.3h-0.7v0.3h-1v0.3h-0.7v0.3h-1v0.3h-1v0.3H184v0.3h-1
				v0.3h-0.7v0.3h-1v0.3h-0.7v0.3h-1v0.3h-0.7v0.3h-0.7v0.3h-0.7v0.3h-1v0.3h-0.7v0.3h-0.7v0.3h-0.7v0.3h-0.7v0.3h-1v0.3h-0.7v0.3
				h-0.7v0.3h-0.7v0.3h-0.7v0.3h-1v0.3h-0.7v0.3h-0.7v0.3h-0.7v0.3h-0.7v0.3h-0.7v0.3h-0.7v0.3h-0.7v0.3h-0.7v0.3h-0.7v0.3h-0.7v0.3
				h-0.7v0.3H161v0.3h-0.7v0.3h-0.7v0.3H159v0.3h-0.7v0.3H158v0.3h-0.7v0.3h-0.7v0.3H156v0.3h-0.7v0.3h-0.7v0.3h-0.7v0.3h-0.3v0.3
				h-0.7v0.3h-0.7v0.3h-0.7v0.3h-0.3v0.3h-0.7v0.3h-0.7v0.3h-0.7v0.3h-0.3v0.3h-0.7v0.3h-0.7v0.3h-0.7v0.3h-0.7v0.3h-0.3v0.3h-0.7
				v0.3h-0.7v0.3h-0.7v0.3h-0.3v0.3h-0.7v0.3h-0.3v0.3h-0.7v0.3h-0.3v0.3h-0.7v0.3h-0.7v0.3h-0.3v0.3h-0.7v0.3h-0.3v0.3h-0.7v0.3
				h-0.7v0.3h-0.3v0.3h-0.7v0.3h-0.3v0.3h-0.7v0.3H135v0.3h-0.7v0.3h-0.7v0.3h-0.3v0.3h-0.7v0.3h-0.3v0.3h-0.7v0.3h-0.3v0.3h-0.7
				v0.3h-0.3v0.3H130v0.3h-0.7v0.3H129v0.3h-0.7v0.3h-0.3v0.3h-0.7v0.3h-0.3v0.3h-0.3v0.3h-0.7v0.3h-0.3v0.3h-0.7v0.3h-0.3v0.3h-0.7
				v0.3h-0.3v0.3h-0.3v0.3h-0.7v0.3h-0.3v0.3h-0.7v0.3h-0.3v0.3h-0.3v0.3h-0.7v0.3h-0.3v0.3h-0.3v0.3h-0.7v0.3h-0.3v0.3h-0.3v0.3
				h-0.3v0.3h-0.7v0.3h-0.3v0.3h-0.3v0.3h-0.7v0.3h-0.3v0.3h-0.3v0.3h-0.3v0.3h-0.7v0.3h-0.3v0.3h-0.3v0.3h-0.7v0.3h-0.3v0.3h-0.3
				v0.3h-0.7v0.3h-0.3v0.3h-0.3v0.3h-0.3v0.3H110v0.3h-0.3v0.3H109v0.3h-0.3v0.3h-0.3v0.3H108v0.3h-0.3v0.3h-0.3v0.3h-0.7v0.3h-0.3
				v0.3H106v0.3h-0.3v0.3h-0.3v0.3H105v0.3h-0.7v0.3H104v0.3h-0.3v0.3h-0.3v0.3H103v0.3h-0.3v0.3h-0.7v0.3h-0.3v0.3h-0.3v0.3h-0.3
				v0.3h-0.3v0.3h-0.3v0.3h-0.3v0.3h-0.3v0.3h-0.3v0.3h-0.3v0.3h-0.3v0.3h-0.3v0.3h-0.3v0.3h-0.3v0.3h-0.3v0.3h-0.3v0.3h-0.3v0.3
				h-0.3v0.3h-0.3v0.3h-0.3v0.3h-0.3v0.3h-0.7v0.3h-0.3v0.3h-0.3v0.3h-0.3v0.3h-0.3v0.3h-0.3v0.3h-0.3v0.3h-0.3v0.3h-0.3v0.3h-0.3
				v0.3h-0.3v0.7h-0.3v0.3h-0.3v0.3h-0.3v0.3h-0.3v0.3h-0.3v0.3h-0.3v0.3h-0.3v0.3h-0.3v0.3h-0.3v0.3h-0.3v0.7h-0.3v0.3h-0.3v0.3
				h-0.3v0.3h-0.3v0.3h-0.3v0.3h-0.3v0.3h-0.3v0.3h-0.3v0.3h-0.3v0.7h-0.3v0.3H84v0.3h-0.3v0.3h-0.3v0.3H83v0.3h-0.3v0.7h-0.3v0.3
				H82v0.3h-0.3v0.7h-0.3v0.3H81v0.3h-0.3v0.3h-0.3v0.7H80v0.3h-0.3v0.3h-0.3v0.7H79v0.3h-0.3v0.3h-0.3v0.3H78v0.7h-0.3v0.3h-0.3
				v0.3H77v0.7h-0.3v0.3h-0.3v0.3h-0.3v0.7h-0.3v0.3h-0.3v0.7h-0.3v0.3h-0.3v0.3h-0.3v0.7h-0.3v0.3h-0.3v0.7h-0.3v0.3h-0.3v0.7h-0.3
				v0.7h-0.3v0.3h-0.3v0.7h-0.3v0.3h-0.3v0.7h-0.3v0.7h-0.3v0.3h-0.3v0.7h-0.3v0.3h-0.3v0.7h-0.3v0.7h-0.3v0.7h-0.3v0.7h-0.3v0.3
				h-0.3v0.7h-0.3v0.7h-0.3v0.7h-0.3v0.7h-0.3v0.7h-0.3v0.7h-0.3v0.7h-0.3v0.7h-0.3v0.7h-0.3v1h-0.3v0.7h-0.3v0.7h-0.3v1h-0.3v0.7
				h-0.3v1h-0.3v1h-0.3v0.7h-0.3v1.4h-0.3v1h-0.3v1h-0.3v1.4h-0.3v1.7h-0.3v1.4h-0.3v2.4h-0.3v4.1h-0.3v3.7h0.3v3.4h0.3v1.7h0.3v1.4
				h0.3v1.4h0.3v1h0.3v1h0.3v1h0.3v0.7h0.3v0.7h0.3v0.7h0.3v0.7h0.3v0.7h0.3v0.7h0.3v0.7h0.3v0.3h0.3v0.7h0.3v0.3h0.3v0.7h0.3v0.3
				h0.3v0.7h0.3v0.3h0.3v0.3h0.3v0.3h0.3v0.3h0.3v0.3h0.3v0.3h0.3v0.3h0.3v0.3h0.3v0.3h0.3v0.3h0.3v0.3h0.3v0.3h0.3v0.3h0.3v0.3h0.3
				v0.3h0.3v0.3h0.3v0.3h0.3v0.3h0.3v0.3h0.7v0.3h0.3v0.3h0.7v0.3h0.3v0.3h0.7v0.3h0.3v0.3h0.7v0.3h0.3v0.3h0.7v0.3h0.3v0.3h0.7v0.3
				h0.3v0.3h0.7v0.3H80v0.3h1v0.3h0.7v0.3h0.7v0.3h1v0.3H84v0.3h0.7v0.3h1.4v0.3h1.7v0.3h1.7v0.3h1.7v0.3h8.4v-0.3h2.4v-0.3h2v-0.3
				h1.4v-0.3h1.4v-0.3h1v-0.3h1v-0.3h1.4v-0.3h1v-0.3h0.7v-0.3h1v-0.3h0.7v-0.3h0.7v-0.3h1v-0.3h0.7v-0.3h0.7v-0.3h0.7V308h0.7v-0.3
				h0.7v-0.3h0.7V307h0.7v-0.3h0.7v-0.3h0.7V306h0.7v-0.3h0.7v-0.3h0.7V305h0.3v-0.3h0.7v-0.3h0.3V304h0.7v-0.3h0.7v-0.3h0.3V303
				h0.7v-0.3h0.7v-0.3h0.3V302h0.7v-0.3h0.3v-0.3h0.7V301h0.3v-0.3h0.7v-0.3h0.3v-0.3h0.7v-0.3h0.3v-0.3h0.7v-0.3h0.3v-0.3h0.7v-0.3
				h0.3v-0.3h0.7v-0.3h0.3v-0.3h0.3v-0.3h0.7v-0.3h0.3v-0.3h0.3v-0.3h0.7v-0.3h0.3v-0.3h0.7v-0.3h0.3v-0.3h0.3v-0.3h0.7v-0.3h0.3
				v-0.3h0.3v-0.3h0.7v-0.3h0.3v-0.3h0.3v-0.3h0.7v-0.3h0.3v-0.3h0.3v-0.3h0.7v-0.3h0.3v-0.3h0.3v-0.3h0.7v-0.3h0.3v-0.3h0.3v-0.3
				h0.3v-0.3h0.7v-0.3h0.3v-0.3h0.3v-0.3h0.7v-0.3h0.3v-0.3h0.3v-0.3h0.7v-0.3h0.3v-0.3h0.3v-0.3h0.3v-0.3h0.7v-0.3h0.3v-0.3h0.3
				v-0.3h0.7v-0.3h0.3v-0.3h0.3v-0.3h0.7v-0.3h0.3v-0.3h0.3v-0.3h0.7V282h0.3v-0.3h0.3v-0.3h0.7V281h0.3v-0.3h0.3v-0.3h0.7V280h0.3
				v-0.3h0.7v-0.3h0.3V279h0.3v-0.3h0.7v-0.3h0.3V278h0.7v-0.3h0.3v-0.3h0.7V277h0.3v-0.3h0.7v-0.3h0.3V276h0.7v-0.3h0.3v-0.3h0.3
				V275h0.7v-0.3h0.3v-0.3h0.7v-0.3h0.3v-0.3h0.7v-0.3h0.3v-0.3h0.7v-0.3h0.3v-0.3h0.7v-0.3h0.3v-0.3h0.7v-0.3h0.3v-0.3h0.7v-0.3
				h0.3v-0.3h0.7v-0.3h0.3v-0.3h0.7v-0.3h0.3v-0.3h0.3v-0.3h0.7v-0.3h0.3v-0.3h0.7v-0.3h0.3v-0.3h0.7v-0.3h0.3v-0.3h0.7v-0.3h0.3
				v-0.3h0.7v-0.3h0.3v-0.3h0.7v-0.3h0.3v-0.3h0.7v-0.3h0.3v-0.3h0.7v-0.3h0.3v-0.3h0.7v-0.3h0.3v-0.3h0.7v-0.3h0.3v-0.3h0.7v-0.3
				h0.3v-0.3h0.7v-0.3h0.3v-0.3h0.7v-0.3h0.3v-0.3h0.7v-0.3h0.3v-0.3h0.7v-0.3h0.3v-0.3h0.7v-0.3h0.3v-0.3h0.7v-0.3h0.3v-0.3h0.7
				v-0.3h0.3v-0.3h0.7V256h0.7v-0.3h0.3v-0.3h0.7V255h0.3v-0.3h0.7v-0.3h0.3V254h0.7v-0.3h0.3v-0.3h0.7V253h0.3v-0.3h0.7v-0.3h0.7
				V252h0.3v-0.3h0.7v-0.3h0.3V251h0.7v-0.3h0.7v-0.3h0.3V250h0.7v-0.3h0.3v-0.3h0.7V249h0.3v-0.3h0.7v-0.3h0.7v-0.3h0.3v-0.3h0.7
				v-0.3h0.7v-0.3h0.3v-0.3h0.7v-0.3h0.7v-0.3h0.3v-0.3h0.7v-0.3h0.7v-0.3h0.3v-0.3h0.7v-0.3h0.7v-0.3h0.3v-0.3h0.7v-0.3h0.7v-0.3
				h0.3v-0.3h0.7v-0.3h0.7v-0.3h0.7v-0.3h0.3v-0.3h0.7v-0.3h0.7v-0.3h0.7v-0.3h0.3v-0.3h0.7v-0.3h0.7v-0.3h0.7v-0.3h0.7v-0.3h0.3
				v-0.3h0.7v-0.3h0.7v-0.3h0.7v-0.3h0.7v-0.3h0.7v-0.3h0.7v-0.3h0.7v-0.3h0.7v-0.3h0.7v-0.3h0.7v-0.3h0.7v-0.3h0.7v-0.3h0.3v-0.3h1
				v-0.3h0.7v-0.3h0.7v-0.3h0.7v-0.3h0.7v-0.3h1v-0.3h0.7v-0.3h0.7v-0.3h0.7v-0.3h0.7v-0.3h1V230h0.7v-0.3h1v-0.3h0.7V229h1v-0.3h1
				v-0.3h0.7V228h1v-0.3h0.7v-0.3h1V227h1.4v-0.3h1v-0.3h1.4V226h1v-0.3h1.4v-0.3h1.4V225h1.7v-0.3h2v-0.3h1.7V224h5.7v-0.3h0.7v0.3
				h3v0.3h2.7v0.3h1v0.3h1v0.3h1v0.3h0.7v0.3h1v0.3h0.7v0.3h0.7v0.3h0.3v0.3h0.7v0.3h0.7v0.3h0.3v0.3h0.7v0.3h0.3v0.3h0.7v0.3h0.3
				v0.3h0.3v0.3h0.3v0.3h0.3v0.3h0.3v0.3h0.3v0.3h0.3v0.3h0.3v0.3h0.3v0.3h0.3v0.3h0.3v0.7h0.3v0.3h0.3v0.3h0.3v0.7h0.3v0.3h0.3v0.7
				h0.3v0.3h0.3v0.7h0.3v0.7h0.3v0.3h0.3v0.7h0.3v0.7h0.3v0.7h0.3v0.7h0.3v1h0.3v0.7h0.3v1h0.3v0.7h0.3v1h0.3v1h0.3v1.4h0.3v1h0.3
				v1.4h0.3v2h0.3v1.7h0.3v3.7h0.3v8.4h-0.3v2.7h-0.3v3h-0.3v1.7h-0.3v1.7h-0.3v1.4h-0.3v1.7h-0.3v1.4h-0.3v1.4h-0.3v1h-0.3v1H291v1
				h-0.3v1.4h-0.3v1H290v1h-0.3v1h-0.3v0.7H289v1h-0.3v0.7h-0.3v1H288v0.7h-0.3v1h-0.3v0.7H287v1h-0.3v0.7h-0.3v0.7H286v0.7h-0.3
				v0.7h-0.3v1H285v0.7h-0.3v0.7h-0.3v0.7H284v0.7h-0.3v0.3h-0.3v0.7h-0.3v0.7h-0.3v0.7h-0.3v0.7h-0.3v0.3h-0.3v0.7h-0.3v0.7h-0.3
				v0.3h-0.3v0.7h-0.3v0.7h-0.3v0.3h-0.3v0.7h-0.3v0.7h-0.3v0.3h-0.3v0.7h-0.3v0.3h-0.3v0.7h-0.3v0.3h-0.3v0.7h-0.3v0.3h-0.3v0.7
				h-0.3v0.3h-0.3v0.7h-0.3v0.3h-0.3v0.7h-0.3v0.3h-0.3v0.3h-0.3v0.7h-0.3v0.3h-0.3v0.3h-0.3v0.7h-0.3v0.3h-0.3v0.3h-0.3v0.7h-0.3
				v0.3h-0.3v0.7h-0.3v0.3h-0.3v0.3h-0.3v0.3h-0.3v0.7h-0.3v0.3h-0.3v0.3h-0.3v0.3h-0.3v0.7h-0.3v0.3h-0.3v0.3h-0.3v0.3h-0.3v0.7
				h-0.3v0.3h-0.3v0.3h-0.3v0.3h-0.3v0.3h-0.3v0.7h-0.3v0.3H265v0.3h-0.3v0.3h-0.3v0.3H264v0.7h-0.3v0.3h-0.3v0.3H263v0.3h-0.3v0.3
				h-0.3v0.3H262v0.3h-0.3v0.3h-0.3v0.7H261v0.3h-0.3v0.3h-0.3v0.3H260v0.3h-0.3v0.3h-0.3v0.3H259v0.3h-0.3v0.3h-0.3v0.7H258v0.3
				h-0.3v0.3h-0.3v0.3h-0.3v0.3h-0.3v0.3h-0.3v0.3h-0.3v0.3h-0.3v0.3h-0.3v0.3h-0.3v0.3h-0.3v0.3h-0.3v0.3h-0.3v0.3h-0.3v0.3h-0.3
				v0.3h-0.3v0.3h-0.3v0.3h-0.3v0.3h-0.3v0.3h-0.3v0.3h-0.3v0.3h-0.3v0.3h-0.3v0.3h-0.3v0.3h-0.3v0.3h-0.3v0.3h-0.3v0.3h-0.3v0.3
				h-0.3v0.3h-0.3v0.3h-0.3v0.3h-0.3v0.3h-0.3v0.3h-0.3v0.3h-0.3v0.3h-0.3v0.3h-0.3v0.3h-0.3v0.3h-0.3v0.3h-0.3v0.3h-0.3v0.3h-0.3
				v0.3h-0.7v0.3h-0.3v0.3h-0.3v0.3h-0.3v0.3h-0.3v0.3h-0.3v0.3h-0.3v0.3h-0.3v0.3h-0.3v0.3h-0.3v0.3h-0.7v0.3h-0.3v0.3H239v0.3
				h-0.3v0.3h-0.3v0.3H238v0.3h-0.3v0.3h-0.3v0.3h-0.7v0.3h-0.3v0.3H236v0.3h-0.3v0.3h-0.3v0.3H235v0.3h-0.3v0.3H234v0.3h-0.3v0.3
				h-0.3v0.3H233v0.3h-0.3v0.3H232v0.3h-0.3v0.3h-0.3v0.3h-0.3v0.3h-0.3v0.3h-0.7v0.3h-0.3v0.3h-0.3v0.3h-0.3v0.3h-0.3v0.3h-0.7v0.3
				h-0.3v0.3h-0.3v0.3h-0.3v0.3h-0.7v0.3h-0.3v0.3h-0.3v0.3h-0.3v0.3h-0.7v0.3h-0.3v0.3h-0.3v0.3h-0.3v0.3h-0.7v0.3h-0.3v0.3h-0.3
				v0.3h-0.3v0.3h-0.7v0.3h-0.3v0.3h-0.3v0.3h-0.7v0.3h-0.3v0.3h-0.3v0.3h-0.7v0.3h-0.3v0.3h-0.3v0.3h-0.7v0.3h-0.3v0.3h-0.3v0.3
				h-0.7v0.3h-0.3v0.3h-0.3v0.3h-0.7v0.3h-0.3v0.3h-0.3v0.3H213v0.3h-0.3v0.3H212v0.3h-0.3v0.3h-0.3v0.3h-0.7v0.3h-0.3v0.3h-0.7v0.3
				h-0.3v0.3h-0.7v0.3h-0.3v0.3H208v0.3h-0.7v0.3H207v0.3h-0.7v0.3H206v0.3h-0.7v0.3h-0.3v0.3h-0.7v0.3h-0.3v0.3h-0.7v0.3h-0.3v0.3
				h-0.7v0.3h-0.3v0.3h-0.7v0.3h-0.3v0.3h-0.7v0.3h-0.7v0.3h-0.3v0.3h-0.7v0.3h-0.3v0.3h-0.7v0.3h-0.7v0.3h-0.3v0.3h-0.7v0.3h-0.3
				v0.3h-0.7v0.3h-0.7v0.3h-0.7v0.3h-0.3v0.3h-0.7v0.3h-0.7v0.3h-0.3v0.3h-0.7v0.3h-0.7v0.3h-0.7v0.3h-0.3v0.3h-0.7v0.3h-0.7v0.3
				H187v0.3h-0.7v0.3h-0.7v0.3h-0.3v0.3h-0.7v0.3H184v0.3h-0.7v0.3h-0.7v0.3H182v0.3h-0.7v0.3h-0.7v0.3H180v0.3h-1v0.3h-0.7v0.3
				h-0.7v0.3h-0.7v0.3h-0.7v0.3h-1v0.3h-0.7v0.3h-1v0.3h-0.7v0.3h-1v0.3h-1v0.3h-0.7v0.3h-1.4v0.3h-1v0.3h-1v0.3h-1.4v0.3h-1.7v0.3
				h-2.4v0.3H158v-0.3h-1.4v-0.3h-1v-0.3H155v-0.3h-0.7v-0.3h-0.3v-0.3h-0.3v-0.3h-0.3v-0.3h-0.3v-0.7h-0.3v-0.7h-0.3v-0.7h-0.3v-1
				h-0.3v-3.4h0.3v-1.7h0.3v-1h0.3v-1h0.3v-0.7h0.3v-0.7h0.3v-0.7h0.3v-0.7h0.3v-0.7h0.3v-0.7h0.3v-0.3h0.3v-0.7h0.3V383h0.3v-0.3
				h0.3V382h0.3v-0.3h0.3V381h0.3v-0.3h0.3V380h0.3v-0.3h0.3v-0.3h0.3v-0.7h0.3v-0.3h0.3v-0.3h0.3v-0.7h0.3v-0.3h0.3v-0.3h0.3v-0.7
				h0.3v-0.3h0.3v-0.3h0.3v-0.3h0.3v-0.3h0.3v-0.7h0.3v-0.3h0.3v-0.3h0.3v-0.3h0.3v-0.3h0.3v-0.3h0.3v-0.7h0.3v-0.3h0.3v-0.3h0.3
				v-0.3h0.3v-0.3h0.3v-0.3h0.3v-0.3h0.3v-0.3h0.3v-0.3h0.3v-0.3h0.3v-0.7h0.3v-0.3h0.3v-0.3h0.3v-0.3h0.3v-0.3h0.3v-0.3h0.3v-0.3
				h0.3v-0.3h0.3v-0.3h0.3v-0.3h0.3v-0.3h0.3v-0.3h0.3v-0.3h0.3v-0.3h0.3v-0.3h0.3v-0.3h0.3v-0.3h0.3v-0.3h0.3v-0.3h0.3v-0.3h0.3
				v-0.3h0.3v-0.3h0.3v-0.3h0.3v-0.3h0.3v-0.3h0.3v-0.3h0.3V359h0.3v-0.3h0.3v-0.3h0.3V358h0.3v-0.3h0.3v-0.3h0.3V357h0.3v-0.3h0.3
				v-0.3h0.3V356h0.3v-0.3h0.3v-0.3h0.3V355h0.3v-0.3h0.3v-0.3h0.3V354h0.3v-0.3h0.3v-0.3h0.3V353h0.3v-0.3h0.3v-0.3h0.3v-0.3h0.3
				v-0.3h0.3v-0.3h0.3v-0.3h0.3v-0.3h0.3v-0.3h0.3v-0.3h0.7v-0.3h0.3v-0.7h0.3v-0.3h0.3v-0.3h0.3v-0.3h0.3v-0.3h0.3v-0.3h0.3v-0.3
				h0.3v-0.3h0.3v-0.3h0.3v-0.3h0.3v-0.3h0.3v-0.7h0.3v-0.3h0.3v-0.3h0.3v-0.3h0.3v-0.3h0.3v-0.3h0.3v-0.7h0.3v-0.3h0.3v-0.3h0.3
				v-0.7h0.3v-0.3h0.3v-0.3h0.3v-0.3h0.3v-0.7h0.3v-0.3h0.3v-0.7h0.3v-0.3h0.3v-0.7h0.3v-0.7h0.3v-0.3h0.3v-0.7h0.3v-0.7h0.3v-0.3
				h0.3v-1h0.3v-1h0.3v-1h0.3V331h0.3v-5.1h-0.3v-1.4h-0.3v-1h-0.3v-0.3h-0.3v-0.7h-0.3v-0.3h-0.3v-0.7h-0.3v-0.3h-0.3v-0.3h-0.3
				v-0.3h-0.3v-0.3h-0.3v-0.3h-0.3v-0.3h-0.3v-0.3h-0.3v-0.3h-0.7v-0.3h-0.3v-0.3h-0.7v-0.3h-0.3v-0.3h-0.7v-0.3h-0.7v-0.3h-0.7
				v-0.3h-0.7v-0.3h-1v-0.3h-1v-0.3h-0.7v-0.3h-1v-0.3h-1.7v-0.3h-1.4v-0.3h-2v-0.3h-3v-0.3h-0.3v0.3h-6.1v0.3h-2v0.3h-1.7v0.3h-1
				v0.3h-1v0.3h-1.4v0.3h-1v0.3h-0.7v0.3h-0.7v0.3h-0.7v0.3h-1v0.3H160v0.3h-0.7v0.3h-0.7v0.3H158v0.3h-0.3v0.3H157v0.3h-0.3v0.3
				H156v0.3h-0.3v0.3H155v0.3h-0.3v0.3h-0.3v0.3h-0.7v0.3h-0.3v0.3h-0.7v0.3h-0.3v0.3h-0.3v0.3h-0.3v0.3h-0.3v0.3h-0.3v0.3h-0.7v0.3
				h-0.3v0.3h-0.3v0.3h-0.3v0.3h-0.3v0.3h-0.3v0.3h-0.3v0.3h-0.3v0.3h-0.3v0.3h-0.3v0.3h-0.3v0.3h-0.3v0.3h-0.3v0.3h-0.3v0.3h-0.3
				v0.3h-0.3v0.7h-0.3v0.3h-0.3v0.3h-0.3v0.3h-0.3v0.3h-0.3v0.7h-0.3v0.3h-0.3v0.3h-0.3v0.3h-0.3v0.3h-0.3v0.3h-0.3v0.7h-0.3v0.3
				h-0.3v0.7h-0.3v0.3h-0.3v0.7h-0.3v0.3h-0.3v0.7h-0.3v0.3h-0.3v0.7h-0.3v0.3h-0.3v0.7h-0.3v0.3h-0.3v0.7h-0.3v0.3h-0.3v0.7h-0.3
				v0.3h-0.3v0.7h-0.3v0.7h-0.3v0.7H135v0.7h-0.3v0.7h-0.3v0.7H134v0.7h-0.3v0.3h-0.3v0.7H133v0.7h-0.3v0.7h-0.3v0.7H132v0.7h-0.3
				v0.7h-0.3v0.7H131v0.7h-0.3v0.7h-0.3v1H130v0.7h-0.3v0.7h-0.3v1H129v0.7h-0.3v0.7h-0.3v1h-0.3v0.7h-0.3v0.7h-0.3v1h-0.3v0.7h-0.3
				v1h-0.3v1h-0.3v1h-0.3v1h-0.3v1.4h-0.3v1h-0.3v1h-0.3v1.4h-0.3v2.4h-0.3v2.4h-0.3v2.7h-0.3v0.3h0.3v6.8h0.3v1.4h0.3v1.4h0.3v1.7
				h0.3v1.4h0.3v0.7h0.3v0.7h0.3v1h0.3v0.7h0.3v0.7h0.3v0.7h0.3v0.7h0.3v0.7h0.3v0.3h0.3v0.7h0.3v0.3h0.3v0.7h0.3v0.3h0.3v0.3h0.3
				v0.7h0.3v0.3h0.3v0.3h0.3v0.7h0.7v0.3h0.3v0.3h0.3v0.3h0.3v0.3h0.3v0.3h0.3v0.3h0.3v0.3h0.3v0.3h0.3v0.3h0.3v0.3h0.3v0.3h0.7v0.3
				h0.3v0.3h0.7v0.3h0.3v0.3h0.7v0.3h0.3v0.3h0.7v0.3h0.3v0.3h0.7v0.3h0.7v0.3h0.7v0.3h0.7v0.3h1v0.3h1v0.3h1v0.3h1.7v0.3h2v0.3h3.4
				v0.3h5.4v-0.3h4.1v-0.3h2.4V410h2v-0.3h1.7v-0.3h1.7V409h1.4v-0.3h1.4v-0.3h1.4V408h1v-0.3h1v-0.3h1.4V407h1v-0.3h1v-0.3h1V406h1
				v-0.3h0.7v-0.3h1V405h1v-0.3h0.7v-0.3h1v-0.3h0.7v-0.3h1v-0.3h0.7v-0.3h1v-0.3h0.7v-0.3h0.7v-0.3h0.7v-0.3h1v-0.3h0.7v-0.3h0.7
				v-0.3h0.7v-0.3h0.7v-0.3h0.7v-0.3h0.7v-0.3h1v-0.3h0.7v-0.3h0.7v-0.3h0.7v-0.3h0.7v-0.3h0.3v-0.3h0.7v-0.3h0.7v-0.3h0.7v-0.3h0.7
				v-0.3h0.7v-0.3h0.7v-0.3h0.7v-0.3h0.3v-0.3h0.7v-0.3h0.7v-0.3h0.7v-0.3h0.7v-0.3h0.3v-0.3h0.7v-0.3h0.7v-0.3h0.7v-0.3h0.3v-0.3
				h0.7v-0.3h0.7v-0.3h0.3v-0.3h0.7v-0.3h0.7v-0.3h0.3v-0.3h0.7v-0.3h0.7v-0.3h0.3v-0.3h0.7v-0.3h0.3v-0.3h0.7v-0.3h0.7v-0.3h0.3
				v-0.3h0.7v-0.3h0.3v-0.3h0.7v-0.3h0.7v-0.3h0.3V385h0.7v-0.3h0.3v-0.3h0.7V384h0.3v-0.3h0.7v-0.3h0.3V383h0.7v-0.3h0.3v-0.3h0.7
				V382h0.3v-0.3h0.7v-0.3h0.3V381h0.7v-0.3h0.3v-0.3h0.3V380h0.7v-0.3h0.3v-0.3h0.7V379h0.3v-0.3h0.7v-0.3h0.3v-0.3h0.7v-0.3h0.3
				v-0.3h0.3v-0.3h0.7v-0.3h0.3v-0.3h0.3v-0.3h0.7v-0.3h0.3v-0.3h0.7v-0.3h0.3v-0.3h0.3v-0.3h0.7v-0.3h0.3v-0.3h0.3v-0.3h0.7v-0.3
				h0.3v-0.3h0.7v-0.3h0.3v-0.3h0.3v-0.3h0.7v-0.3h0.3v-0.3h0.3v-0.3h0.7v-0.3h0.3v-0.3h0.3v-0.3h0.3v-0.3h0.7v-0.3h0.3v-0.3h0.3
				v-0.3h0.7v-0.3h0.3v-0.3h0.3v-0.3h0.7v-0.3h0.3v-0.3h0.3v-0.3h0.3v-0.3h0.7v-0.3h0.3v-0.3h0.3v-0.3h0.7v-0.3h0.3v-0.3h0.3v-0.3
				h0.3v-0.3h0.7v-0.3h0.3v-0.3h0.3v-0.3h0.3v-0.3h0.7v-0.3h0.3v-0.3h0.3v-0.3h0.3v-0.3h0.7v-0.3h0.3v-0.3h0.3v-0.3h0.3v-0.3h0.3
				V359h0.7v-0.3h0.3v-0.3h0.3V358h0.3v-0.3h0.7v-0.3h0.3V357h0.3v-0.3h0.3v-0.3h0.3V356h0.7v-0.3h0.3v-0.3h0.3V355h0.3v-0.3h0.3
				v-0.3h0.7V354h0.3v-0.3h0.3v-0.3h0.3V353h0.3v-0.3h0.3v-0.3h0.7v-0.3h0.3v-0.3h0.3v-0.3h0.3v-0.3h0.3v-0.3h0.3v-0.3h0.7v-0.3h0.3
				v-0.3h0.3v-0.3h0.3v-0.3h0.3v-0.3h0.3v-0.3h0.3v-0.3h0.7v-0.3h0.3v-0.3h0.3v-0.3h0.3v-0.3h0.3v-0.3h0.3v-0.3h0.3v-0.3h0.3v-0.3
				h0.3v-0.3h0.7v-0.3h0.3v-0.3h0.3v-0.3h0.3v-0.3h0.3v-0.3h0.3v-0.3h0.3v-0.3h0.3v-0.3h0.3v-0.3h0.3v-0.3h0.3v-0.3h0.3v-0.3h0.3
				v-0.3h0.3v-0.3h0.3v-0.3h0.3v-0.3h0.3v-0.3h0.3v-0.3h0.3v-0.3h0.3v-0.3h0.3v-0.3h0.3v-0.3h0.3v-0.3h0.3v-0.3h0.3v-0.3h0.3v-0.3
				h0.3v-0.3h0.3v-0.3h0.3v-0.3h0.3v-0.3h0.3v-0.3h0.3V334h0.3v-0.3h0.3v-0.3h0.3V333h0.3v-0.3h0.3V332h0.3v-0.3h0.3v-0.3h0.3V331
				h0.3v-0.3h0.3v-0.3h0.3V330h0.3v-0.3h0.3v-0.3h0.3V329h0.3v-0.7h0.3V328h0.3v-0.3h0.3v-0.3h0.3V327h0.3v-0.3h0.3v-0.7h0.3v-0.3
				h0.3v-0.3h0.3v-0.3h0.3v-0.3h0.3v-0.3h0.3v-0.7h0.3v-0.3h0.3v-0.3h0.3v-0.3h0.3v-0.3h0.3v-0.7h0.3v-0.3h0.3v-0.3h0.3v-0.7h0.3
				v-0.3h0.3v-0.3h0.3v-0.3h0.3v-0.7h0.3v-0.3h0.3v-0.3h0.3v-0.3h0.3v-0.7h0.3v-0.3h0.3v-0.3h0.3v-0.7h0.3v-0.3h0.3v-0.3h0.3v-0.7
				h0.3v-0.3h0.3v-0.3h0.3v-0.7h0.3v-0.3h0.3v-0.7h0.3v-0.3h0.3v-0.3h0.3v-0.7h0.3v-0.3h0.3v-0.7h0.3v-0.3h0.3v-0.3h0.3V308h0.3
				v-0.3h0.3V307h0.3v-0.3h0.3V306h0.3v-0.3h0.3V305h0.3v-0.3h0.3V304h0.3v-0.3h0.3V303h0.3v-0.3h0.3V302h0.3v-0.7h0.3V301h0.3v-0.7
				h0.3v-0.3h0.3v-0.7h0.3v-0.7h0.3v-0.3h0.3v-0.7h0.3v-0.7h0.3v-0.3h0.3v-0.7h0.3v-0.7h0.3v-0.3h0.3v-0.7h0.3v-0.7h0.3v-0.7h0.3
				v-0.3h0.3v-0.7h0.3v-0.7h0.3v-0.7h0.3v-0.7h0.3v-0.7h0.3v-0.7h0.3v-0.3h0.3v-0.7h0.3v-0.7h0.3v-0.7h0.3v-0.7h0.3v-0.7h0.3v-0.7
				h0.3v-0.7h0.3v-0.7h0.3V282h0.3v-1h0.3v-0.7h0.3v-0.7h0.3V279h0.3v-0.7h0.3v-0.7h0.3V277h0.3v-1h0.3v-0.7h0.3v-1h0.3v-0.7h0.3v-1
				h0.3v-0.7h0.3v-1h0.3v-0.7h0.3v-1h0.3v-0.7h0.3v-1h0.3v-1h0.3v-1h0.3v-1h0.3v-1h0.3v-1h0.3v-1h0.3v-1h0.3v-1h0.3v-1.4h0.3v-1.4
				h0.3v-1h0.3v-1.4h0.3V253h0.3v-1.4h0.3V250h0.3v-1.7h0.3v-1.7h0.3v-1.7h0.3v-2h0.3v-2.7h0.3v-2.7h0.3v-4.4h0.3v-10.5h-0.3v-6.4
				h-0.3v-2.7h-0.3v-2h-0.3v-2h-0.3v-2h-0.3v-2h-0.3v-1.7h-0.3v-1h-0.3v-1h-0.3v-1.4h-0.3v-1h-0.3v-1h-0.3v-1.4h-0.3v-1h-0.3v-1
				h-0.3v-1h-0.3v-0.7h-0.3v-0.7h-0.3v-1h-0.3v-0.7h-0.3v-0.7h-0.3v-0.7h-0.3v-1h-0.3v-0.7h-0.3v-0.7h-0.3v-0.7h-0.3v-0.7h-0.3v-0.7
				h-0.3v-0.7h-0.3v-0.3h-0.3v-0.7h-0.3v-0.3h-0.3v-0.7h-0.3v-0.7h-0.3v-0.3h-0.3v-0.7h-0.3v-0.7h-0.3v-0.3h-0.3v-0.7h-0.3v-0.3
				h-0.3V178h-0.3v-0.3h-0.3v-0.3h-0.3v-0.7h-0.3v-0.3h-0.3V176h-0.3v-0.3h-0.3V175h-0.3v-0.3H316v-0.3h-0.3V174h-0.3v-0.7H315V173
				h-0.3v-0.3h-0.3v-0.3H314V172h-0.3v-0.7h-0.3v-0.3H313v-0.3h-0.3v-0.3h-0.3v-0.3H312v-0.3h-0.3v-0.3H311v-0.3h-0.3v-0.3h-0.3
				v-0.3H310v-0.3h-0.3v-0.3h-0.3v-0.3h-0.3v-0.3h-0.3v-0.3h-0.3v-0.3h-0.3v-0.3h-0.3v-0.3h-0.3v-0.3h-0.3v-0.3h-0.7v-0.3h-0.3v-0.3
				h-0.3v-0.3h-0.7v-0.3h-0.3v-0.3h-0.3v-0.3h-0.7v-0.3h-0.3v-0.3h-0.3v-0.3h-0.7v-0.3h-0.3v-0.3h-0.3v-0.3h-0.3v-0.3h-0.7v-0.3
				h-0.7v-0.3h-0.3v-0.3h-0.7v-0.3h-0.7v-0.3h-0.3v-0.3h-0.7v-0.3h-0.3v-0.3h-0.7v-0.3h-0.7v-0.3h-0.3v-0.3h-0.7v-0.3h-0.7v-0.3
				h-0.7v-0.3h-0.7v-0.3h-0.7v-0.3H291v-0.3h-0.7v-0.3h-0.7v-0.3H289v-0.3h-0.7v-0.3h-0.7V153H287v-0.3h-1v-0.3h-0.7V152h-1v-0.3
				h-0.7v-0.3h-1V151h-1v-0.3h-0.7v-0.3h-1V150h-1v-0.3h-1v-0.3h-1V149h-1.4v-0.3h-1v-0.3h-1V148h-1.4v-0.3h-1.4v-0.3h-1.4V147h-1.7
				v-0.3h-1.4v-0.3h-1.7V146h-2v-0.3h-2v-0.3h-2v-0.3h-3v-0.3h-3v-0.3H236z"/>
		</g>
		<g id="g3536" transform="translate(161.25,273)">
			<path id="path3538" class="st14" d="M85,207.2v0.7h0.3v-0.7H85z M84.7,207.9v0.7H85v-0.7H84.7z M84.3,208.6v0.7h0.3v-0.7H84.3z
				 M84,209.6v0.7h0.3v-0.7H84z M83.7,210.6v0.7H84v-0.7H83.7z M83.3,212.3v0.7h0.3v-0.7H83.3z"/>
		</g>
		<g id="g3540" transform="translate(162.75,272.5)">
			<path id="path3542" class="st14" d="M83.9,207.1v0.7h0.3v-0.7H83.9z"/>
		</g>
		<g id="g3544" transform="translate(164.5,269.25)">
			<path id="path3546" class="st14" d="M84.5,205.9v0.7h0.3v-0.7H84.5z"/>
		</g>
		<g id="g3548" transform="translate(162.75,269.5)">
			<path id="path3550" class="st14" d="M86.2,206v0.3h-0.3v0.3h-0.3v0.7h-0.3v0.7h-0.3v0.3h-0.3v0.7h-0.3v0.7h-0.3v0.7h0.3v-0.3h0.3
				v-0.7h0.3v-0.7h0.3v-0.3h0.3v-0.7h0.3V207h0.3v-0.3h0.3V206H86.2z"/>
		</g>
		<g id="g3552" transform="translate(162.5,272.75)">
			<path id="path3554" class="st14" d="M83.8,207.1v0.7h0.3v-0.3h0.3v-0.3H83.8z"/>
		</g>
	</g>
</g>
</svg>
