<svg width="35" height="35" viewBox="0 0 35 35" fill="none" xmlns="http://www.w3.org/2000/svg">
<path d="M34.4561 0H0.262268V34.1938H34.4561V0Z" fill="#FFC403"/>
<path d="M15.4714 15.0782V18.9847H14.3995V16.7932L13.6849 17.8532H13.1251L12.3391 16.7932V18.9847H11.3624V15.0782H12.351L13.4824 16.6146L14.4948 15.0782H15.4714ZM15.7811 15.9595V15.0782H19.4255V15.9595H18.1512V18.9847H17.0673V15.9595H15.7811ZM23.4392 15.0782V18.9847H22.546L20.7118 16.7575V18.9847H19.7352V15.0782H20.7118L22.4626 17.2339V15.0782H23.4392ZM17.3651 23.0579C14.2089 23.0579 11.2433 22.4624 8.99232 21.4024C6.64604 20.2829 5.34784 18.7584 5.34784 17.1029C5.34784 15.4474 6.64604 13.9229 8.99232 12.8033C11.2314 11.7314 14.2089 11.1478 17.3651 11.1478C20.5213 11.1478 23.4869 11.7433 25.7379 12.8033C28.0842 13.9229 29.3824 15.4474 29.3824 17.1029C29.3824 18.7584 28.0842 20.2829 25.7379 21.4024C23.4869 22.4624 20.5213 23.0579 17.3651 23.0579ZM17.3651 12.0054C14.3399 12.0054 11.5053 12.5651 9.37344 13.5775C7.34873 14.5422 6.22918 15.7928 6.22918 17.091C6.22918 18.3892 7.34873 19.6397 9.37344 20.6044C11.5053 21.6168 14.3399 22.1766 17.3651 22.1766C20.3903 22.1766 23.2249 21.6168 25.3568 20.6044C27.3815 19.6397 28.501 18.3892 28.501 17.091C28.501 15.7928 27.3815 14.5422 25.3568 13.5775C23.2249 12.5651 20.3903 12.0054 17.3651 12.0054Z" fill="black"/>
</svg>
